<svg width="16" height="16" viewBox="0 0 16 16" fill="none" xmlns="http://www.w3.org/2000/svg">
<path d="M0 16L1.37037 10.4815L9.77779 2.07404L13.9259 6.22219L5.51853 14.6296L0 16ZM2.33334 11L1.44444 14.5555L5.00001 13.6666L12.4815 6.18515L9.81483 3.51848L2.33334 11Z" fill="#134563"/>
<path d="M4.62964 14.2963C4.25927 12.8518 3.14815 11.7407 1.7037 11.3703L1.96297 10.3333C3.77779 10.7778 5.18519 12.1852 5.62964 14L4.62964 14.2963Z" fill="#134563"/>
<path d="M4.51851 12.2593L3.77777 11.4815L11.1482 4.11115L11.8889 4.85189L4.51851 12.2593Z" fill="#134563"/>
<path d="M0.740723 15.2593L2.37035 14.8519C2.2222 14.2593 1.74072 13.7778 1.14813 13.6296L0.740723 15.2593Z" fill="#134563"/>
<path d="M14.3333 5.81482L10.1852 1.66667L11.8519 0L12.1111 0.0370393C14.1111 0.296299 15.7037 1.88889 15.963 3.88889L16 4.14815L14.3333 5.81482ZM11.7037 1.66667L14.3704 4.33334L14.8889 3.81482C14.5926 2.48149 13.5556 1.44445 12.2222 1.14815L11.7037 1.66667Z" fill="#134563"/>
</svg>
