<svg width="16" height="16" viewBox="0 0 16 16" fill="none" xmlns="http://www.w3.org/2000/svg">
<path d="M4.9231 4.97705H6.15386V12.9938H4.9231V4.97705Z" fill="#134563"/>
<path d="M7.38461 4.97705H8.61538V12.9938H7.38461V4.97705Z" fill="#134563"/>
<path d="M9.84619 4.97705H11.077V12.9938H9.84619V4.97705Z" fill="#134563"/>
<path d="M0 1.97083H16V2.97291H0V1.97083Z" fill="#134563"/>
<path d="M11.0359 2.47181H9.88716V1.46973C9.88716 1.1691 9.59998 0.935283 9.23074 0.935283H6.76921C6.39998 0.935283 6.11279 1.1691 6.11279 1.46973V2.47181H4.96408V1.46973C4.96408 0.668056 5.78459 0 6.76921 0H9.23074C10.2154 0 11.0359 0.668056 11.0359 1.46973V2.47181Z" fill="#134563"/>
<path d="M11.6923 15.9999H4.30773C3.32311 15.9999 2.46157 15.3319 2.37952 14.5302L1.2308 2.50516L2.46157 2.43835L3.61029 14.4634C3.65132 14.764 3.97952 14.9979 4.30773 14.9979H11.6923C12.0616 14.9979 12.3898 14.7306 12.3898 14.4634L13.5385 2.43835L14.7693 2.50516L13.6205 14.5302C13.5385 15.3653 12.677 15.9999 11.6923 15.9999Z" fill="#134563"/>
</svg>
