<svg width="126" height="15" viewBox="0 0 126 15" fill="none" xmlns="http://www.w3.org/2000/svg">
<path d="M0.130219 14V11.984H1.69022V2.288H0.130219V0.271999H6.56222V2.288H5.00222V6.728L9.61022 2.288H8.29022V0.271999H14.3622V2.288H13.0182L8.14622 6.968L13.2342 11.984H14.5782V14H8.24222V11.984H9.49022L5.00222 7.472V11.984H6.56222V14H0.130219ZM23.9101 14.264C22.7421 14.264 21.6861 14.088 20.7421 13.736C19.7981 13.384 18.9901 12.888 18.3181 12.248C17.6461 11.608 17.1261 10.856 16.7581 9.992C16.4061 9.128 16.2301 8.192 16.2301 7.184C16.2301 6.16 16.4061 5.216 16.7581 4.352C17.1261 3.472 17.6461 2.712 18.3181 2.072C18.9901 1.432 19.7981 0.936 20.7421 0.584C21.6861 0.216 22.7421 0.0319996 23.9101 0.0319996C25.0621 0.0319996 26.1101 0.216 27.0541 0.584C27.9981 0.936 28.8061 1.432 29.4781 2.072C30.1501 2.712 30.6621 3.472 31.0141 4.352C31.3821 5.216 31.5661 6.152 31.5661 7.16C31.5661 8.184 31.3821 9.128 31.0141 9.992C30.6621 10.856 30.1501 11.608 29.4781 12.248C28.8061 12.888 27.9981 13.384 27.0541 13.736C26.1101 14.088 25.0621 14.264 23.9101 14.264ZM23.9101 11.96C24.5501 11.96 25.1261 11.84 25.6381 11.6C26.1661 11.344 26.6141 11 26.9821 10.568C27.3501 10.136 27.6301 9.632 27.8221 9.056C28.0141 8.464 28.1101 7.816 28.1101 7.112C28.1101 6.424 28.0141 5.784 27.8221 5.192C27.6301 4.6 27.3501 4.088 26.9821 3.656C26.6141 3.224 26.1661 2.896 25.6381 2.672C25.1261 2.432 24.5501 2.312 23.9101 2.312C23.2381 2.312 22.6461 2.432 22.1341 2.672C21.6221 2.912 21.1821 3.248 20.8141 3.68C20.4461 4.112 20.1661 4.624 19.9741 5.216C19.7821 5.792 19.6861 6.432 19.6861 7.136C19.6861 7.824 19.7821 8.464 19.9741 9.056C20.1661 9.632 20.4461 10.144 20.8141 10.592C21.1821 11.024 21.6221 11.36 22.1341 11.6C22.6461 11.84 23.2381 11.96 23.9101 11.96ZM33.6464 14V11.984H35.2304V2.288H33.6464V0.271999H39.0464L45.5504 9.824V2.288H43.8704V0.271999H49.3904V2.288H47.8304V14H44.5184L37.4624 3.608V11.984H39.1424V14H33.6464ZM54.224 14V11.984H55.88V2.24H52.976V5.24H50.768V0.271999H64.232V5.24H62.048V2.24H59.168V11.984H60.848V14H54.224ZM65.4393 14V11.984H66.9753L70.5513 2.288H69.1353V0.271999H77.6073V2.288H76.1913L79.8393 11.984H81.3033V14H74.8233V11.984H76.4553L75.4713 8.984H70.9593L69.9513 11.984H71.4633V14H65.4393ZM71.5353 7.064H74.8713L73.3113 2.312H73.1913L71.5353 7.064ZM90.4703 14.264C89.3663 14.264 88.3503 14.096 87.4223 13.76C86.5103 13.424 85.7103 12.944 85.0223 12.32C84.3343 11.696 83.8063 10.952 83.4383 10.088C83.0703 9.208 82.8863 8.224 82.8863 7.136C82.8863 5.712 83.1983 4.464 83.8223 3.392C84.4463 2.32 85.3023 1.496 86.3903 0.92C87.4943 0.328 88.7583 0.0319996 90.1823 0.0319996C91.1423 0.0319996 91.9903 0.176 92.7263 0.464C93.4783 0.735999 94.0943 1.136 94.5743 1.664C95.0543 2.176 95.3823 2.768 95.5583 3.44L94.7663 3.008V0.271999H96.9983V4.88L95.0783 4.904C94.6303 4.024 94.0623 3.376 93.3743 2.96C92.7023 2.528 91.8703 2.312 90.8783 2.312C89.9183 2.312 89.0943 2.52 88.4063 2.936C87.7343 3.336 87.2063 3.896 86.8223 4.616C86.4543 5.336 86.2703 6.16 86.2703 7.088C86.2703 7.824 86.3743 8.488 86.5823 9.08C86.8063 9.672 87.1103 10.184 87.4943 10.616C87.8943 11.048 88.3583 11.384 88.8863 11.624C89.4303 11.848 90.0223 11.96 90.6623 11.96C91.3343 11.96 91.9423 11.848 92.4863 11.624C93.0303 11.384 93.4943 11.032 93.8783 10.568C94.2783 10.088 94.5823 9.488 94.7903 8.768L97.3343 9.752C97.0463 10.728 96.5823 11.552 95.9423 12.224C95.3183 12.88 94.5423 13.384 93.6143 13.736C92.6863 14.072 91.6383 14.248 90.4703 14.264ZM102.693 14V11.984H104.349V2.24H101.445V5.24H99.2367V0.271999H112.701V5.24H110.517V2.24H107.637V11.984H109.317V14H102.693ZM121.3 14.24C120.644 14.24 119.996 14.136 119.356 13.928C118.716 13.72 118.148 13.424 117.652 13.04C117.172 12.656 116.836 12.2 116.644 11.672H117.1V14H114.796V9.344H116.86C117.036 9.92 117.3 10.432 117.652 10.88C118.02 11.312 118.468 11.656 118.996 11.912C119.54 12.152 120.156 12.272 120.844 12.272C121.468 12.272 121.964 12.128 122.332 11.84C122.7 11.536 122.884 11.112 122.884 10.568C122.884 10.12 122.796 9.768 122.62 9.512C122.46 9.256 122.188 9.056 121.804 8.912C121.42 8.752 120.916 8.616 120.292 8.504L119.068 8.264C117.66 7.976 116.58 7.496 115.828 6.824C115.076 6.136 114.7 5.192 114.7 3.992C114.7 3.176 114.884 2.472 115.252 1.88C115.636 1.288 116.164 0.831999 116.836 0.511999C117.508 0.176 118.292 0.0079999 119.188 0.0079999C120.228 0.0079999 121.124 0.208 121.876 0.607999C122.644 1.008 123.228 1.56 123.628 2.264H123.1V0.271999H125.26V4.232H123.268C123.14 3.88 122.948 3.536 122.692 3.2C122.436 2.848 122.076 2.56 121.612 2.336C121.164 2.096 120.588 1.976 119.884 1.976C119.26 1.976 118.772 2.12 118.42 2.408C118.084 2.68 117.916 3.056 117.916 3.536C117.916 4.08 118.132 4.504 118.564 4.808C118.996 5.096 119.668 5.328 120.58 5.504L121.324 5.648C122.364 5.824 123.228 6.088 123.916 6.44C124.604 6.792 125.108 7.256 125.428 7.832C125.764 8.408 125.932 9.136 125.932 10.016C125.932 10.848 125.74 11.584 125.356 12.224C124.988 12.848 124.46 13.344 123.772 13.712C123.084 14.064 122.26 14.24 121.3 14.24Z" fill="white"/>
</svg>
