<?xml version="1.0" encoding="UTF-8"?>
<!DOCTYPE svg PUBLIC "-//W3C//DTD SVG 1.1//EN" "http://www.w3.org/Graphics/SVG/1.1/DTD/svg11.dtd">
<!-- Creator: CorelDRAW 2020 (64 Bit) -->
<svg xmlns="http://www.w3.org/2000/svg" xml:space="preserve" width="176.389mm" height="176.389mm" version="1.1" style="shape-rendering:geometricPrecision; text-rendering:geometricPrecision; image-rendering:optimizeQuality; fill-rule:evenodd; clip-rule:evenodd"
viewBox="0 0 17638.88 17638.88"
 xmlns:xlink="http://www.w3.org/1999/xlink"
 xmlns:xodm="http://www.corel.com/coreldraw/odm/2003">
 <defs>
  <style type="text/css">
   <![CDATA[
    .fil5 {fill:#FEFEFE;fill-rule:nonzero}
    .fil6 {fill:#FDC056;fill-rule:nonzero}
    .fil14 {fill:#FAA849;fill-rule:nonzero}
    .fil16 {fill:#F8A05B;fill-rule:nonzero}
    .fil18 {fill:#F79340;fill-rule:nonzero}
    .fil9 {fill:#F69048;fill-rule:nonzero}
    .fil17 {fill:#F4813D;fill-rule:nonzero}
    .fil10 {fill:#EB7537;fill-rule:nonzero}
    .fil11 {fill:#EEAC46;fill-rule:nonzero}
    .fil3 {fill:#D7EFF8;fill-rule:nonzero}
    .fil0 {fill:#B7DFEA;fill-rule:nonzero}
    .fil12 {fill:#B4C3B3;fill-rule:nonzero}
    .fil1 {fill:#A3D6E3;fill-rule:nonzero}
    .fil2 {fill:#7FCAE8;fill-rule:nonzero}
    .fil15 {fill:#54B5D5;fill-rule:nonzero}
    .fil4 {fill:#2A86C1;fill-rule:nonzero}
    .fil13 {fill:#297797;fill-rule:nonzero}
    .fil7 {fill:#266C92;fill-rule:nonzero}
    .fil8 {fill:#295E73;fill-rule:nonzero}
   ]]>
  </style>
   <clipPath id="id0">
    <path d="M12049.01 12368.39l-395.38 0 262.17 -526.88 133.21 0 0 526.88zm-867.28 0l-592.35 0 260.75 -526.88 592.35 0 -260.75 526.88zm-1065.66 0l-592.36 0 260.75 -526.88 592.36 0 -260.75 526.88zm-1065.67 0l-592.35 0 260.75 -526.88 593.77 0 -262.17 526.88zm-1065.67 0l-592.35 0 262.17 -526.88 592.35 0 -262.17 526.88zm-882.86 -365.49l0 -161.39 79.36 0 -79.36 161.39 0 0z"/>
   </clipPath>
   <clipPath id="id1">
    <path d="M7392.87 12368.39l-291.6 0 0 -365.49 79.96 -161.39 472.92 0 -261.28 526.88 0 0z"/>
   </clipPath>
   <clipPath id="id2">
    <path d="M8458.19 12368.39l-472.9 0 261.45 -526.88 472.67 0 -261.22 526.88 0 0z"/>
   </clipPath>
   <clipPath id="id3">
    <path d="M9523.62 12368.39l-473.04 0 261.52 -526.88 472.81 0 -261.29 526.88 0 0z"/>
   </clipPath>
   <clipPath id="id4">
    <path d="M10589.01 12368.39l-473.04 0 261.51 -526.88 472.59 0 -261.06 526.88 0 0z"/>
   </clipPath>
   <clipPath id="id5">
    <path d="M11653.92 12368.39l-472.59 0 261.29 -526.88 472.82 0 -261.52 526.88 0 0z"/>
   </clipPath>
 </defs>
 <g id="Camada_x0020_1">
  <metadata id="CorelCorpID_0Corel-Layer"/>
  <path class="fil0" d="M15982.91 13883.78c245.18,0 445.35,-196.64 449.09,-441.86 18.76,-1222.16 117.22,-3024.93 -2184.47,-3523.51 -1862.64,-403.43 -758.27,-3713.62 -5774.55,-3499.73 -3600.91,153.53 -2644.28,3188.65 -5444.07,3441.42 -1863.03,168.2 -1879.11,2524.44 -1807.55,3604.05 15.66,236.15 211.58,419.63 448.25,419.63l14313.3 0z"/>
  <path class="fil1" d="M15982.91 13883.78l-970.81 0c19.93,-1221.25 92.04,-2990.96 -2185.1,-3484.21 -335.28,-72.64 -574.4,-239.47 -770.44,-462.92l267.23 -2289.24c768.95,917.54 885.23,2046.07 1923.74,2271 2014,436.28 2190.36,1871.03 2190.39,3041.65 0,167.26 -3.56,329.11 -5.92,481.86 -3.74,245.22 -203.91,441.86 -449.09,441.86z"/>
  <polygon class="fil2" points="6271.36,5778.46 6350.52,5778.46 6350.52,0 6271.36,0 "/>
  <polygon class="fil2" points="11950.13,6666.12 12029.33,6666.12 12029.33,0 11950.13,0 "/>
  <path class="fil3" d="M12021.74 6277.54l-5889.51 -687.43c-251.71,-29.38 -479.54,150.85 -508.92,402.56l-439.6 3766.04c-29.38,251.71 150.85,479.57 402.56,508.95l5889.52 687.43c251.7,29.35 479.56,-150.85 508.91,-402.56l439.6 -3766.04c29.39,-251.71 -150.88,-479.57 -402.56,-508.95z"/>
  <path class="fil4" d="M12380.77 7159.23l43.53 -372.74c29.39,-251.71 -150.88,-479.57 -402.56,-508.95l-5889.51 -687.43c-251.71,-29.38 -479.54,150.85 -508.92,402.56l-43.53 372.78 6800.99 793.78z"/>
  <path class="fil2" d="M7217.26 8744.23l96.31 -825.15c0.67,-5.71 -6.98,-8.22 -9.84,-3.21l-441.08 778.3c-7.79,13.76 0.95,31.01 16.65,32.81l313.48 36.62c12.1,1.41 23.07,-7.27 24.48,-19.37zm-684.6 -98.39l746.55 -1315.4c47.84,-84.25 141.47,-131.73 237.7,-120.51 132.3,15.45 227.05,135.25 211.6,267.51l-155.29 1330.54 6.63 0.77c91.65,10.69 157.3,93.7 146.61,185.35 -10.72,91.69 -93.69,157.3 -185.35,146.62l-6.66 -0.78 -28.3 242.32c-11.53,98.99 -101.14,169.9 -200.13,158.29 -99.02,-11.53 -169.89,-101.17 -158.32,-200.13l28.29 -242.36 -537.49 -62.68c-91.83,-10.76 -157.55,-93.84 -146.83,-185.67l14.22 -122.13c3.38,-28.75 12.45,-56.55 26.77,-81.74z"/>
  <path class="fil2" d="M10512.1 9128.83l96.31 -825.19c0.67,-5.71 -6.98,-8.22 -9.84,-3.21l-441.08 778.34c-7.8,13.72 0.95,30.97 16.62,32.81l313.51 36.58c12.1,1.41 23.07,-7.27 24.48,-19.33zm-684.63 -98.43l746.55 -1315.37c47.87,-84.27 141.46,-131.76 237.73,-120.5 132.29,15.45 227.01,135.22 211.6,267.51l-155.33 1330.53 6.67 0.78c91.61,10.69 157.3,93.66 146.58,185.35 -10.69,91.65 -93.67,157.3 -185.35,146.61l-6.63 -0.81 -28.3 242.33c-11.53,98.98 -101.14,169.89 -200.16,158.32 -98.99,-11.53 -169.87,-101.14 -158.3,-200.16l28.3 -242.33 -537.49 -62.72c-91.83,-10.73 -157.59,-93.84 -146.87,-185.67l14.26 -122.09c3.35,-28.79 12.45,-56.59 26.74,-81.78z"/>
  <path class="fil2" d="M8567.7 9146.15c-19.41,165.98 46.28,237.52 162.45,251.11 116.21,13.58 196.57,-40.96 215.97,-206.94l146.44 -1254.76c19.37,-165.95 -46.28,-237.56 -162.45,-251.11 -116.21,-13.55 -196.61,40.99 -215.97,206.94l-146.44 1254.76zm-221.41 -1274.13c43.4,-371.79 264.02,-561.37 622.52,-519.5 358.49,41.84 529.55,277.14 486.19,648.93l-141.04 1208.23c-43.42,371.8 -264.05,561.38 -622.54,519.54 -358.53,-41.84 -529.56,-277.14 -486.17,-648.94l141.04 -1208.26z"/>
  <path class="fil5" d="M6274.08 6110.53c-7.9,67.66 -69.11,116.1 -136.77,108.2 -67.63,-7.9 -116.07,-69.15 -108.17,-136.77 7.87,-67.63 69.11,-116.07 136.78,-108.2 67.62,7.94 116.06,69.14 108.16,136.77z"/>
  <path class="fil2" d="M6864.84 6179.5c-7.9,67.63 -69.15,116.1 -136.77,108.2 -67.63,-7.91 -116.07,-69.15 -108.2,-136.78 7.94,-67.66 69.14,-116.1 136.77,-108.19 67.66,7.9 116.1,69.14 108.2,136.77z"/>
  <path class="fil6" d="M7477.23 6250.97c-7.91,67.66 -69.15,116.07 -136.78,108.2 -67.66,-7.9 -116.06,-69.15 -108.19,-136.77 7.9,-67.67 69.14,-116.1 136.77,-108.2 67.66,7.9 116.1,69.14 108.2,136.77z"/>
  <path class="fil7" d="M5107.97 10540.71c0,0 -79.55,352.68 -66.29,713.36 11.86,322.82 -26.53,2445.06 -26.53,2445.06l259.23 0c0,0 369,-1662.14 382.79,-1793.41 13.8,-131.24 199.43,-1443.89 199.43,-1443.89l-748.63 78.88z"/>
  <path class="fil4" d="M5280.34 10443.91c0,0 59.69,453.46 161.11,775.65 101.42,322.2 599.97,2479.57 599.97,2479.57l259.22 0c0,0 -47.73,-1662.14 -65.62,-1793.41 -17.92,-131.24 -149.19,-1443.89 -149.19,-1443.89l-805.49 -17.92z"/>
  <path class="fil4" d="M6062.59 13698.75l0 180.86 493.46 0c28.01,0 38.98,-36.3 15.63,-51.82 -72.14,-48.08 -187.75,-114.3 -295.17,-129.04l-213.92 0z"/>
  <path class="fil4" d="M5028.38 13698.75l0 180.86 493.43 0c28.05,0 38.99,-36.3 15.67,-51.82 -72.18,-48.08 -187.75,-114.3 -295.21,-129.04l-213.89 0z"/>
  <path class="fil7" d="M5918.69 8334.55c0,0 169.72,-257.71 -25.12,-282.86 -149.65,-19.33 -211.17,25.26 -211.17,25.26 0,0 -172.26,-18.98 -266.56,62.72 -64.63,56.02 -301.73,490.29 81.7,647.46 383.44,157.12 301.73,-245.15 301.73,-245.15l119.42 -207.43z"/>
  <path class="fil8" d="M5893.57 8051.69c-149.65,-19.33 -211.17,25.26 -211.17,25.26 0,0 -172.26,-18.98 -266.56,62.72 -64.63,56.02 -301.73,490.29 81.7,647.46 180.24,73.87 257.71,24.09 289.17,-49.36 -363.81,102.31 -403.26,-336.12 -343.25,-460.9 60.93,-126.79 207.22,-68.26 207.22,-68.26 57.22,-144.01 243.67,-128.42 320.54,-117.2 -14.04,-20 -38.31,-34.64 -77.65,-39.72z"/>
  <path class="fil9" d="M5679.82 8460.24c0,0 -50.27,-50.27 -87.98,0 -37.71,50.31 -12.56,163.44 50.31,169.72 0,0 -18.88,163.45 -144.61,157.17l0 131.97 295.45 0 0 -100.54c0,0 182.28,-75.46 176.01,-226.27 -6.32,-150.89 -50.31,-257.74 -50.31,-257.74 0,0 -100.58,113.13 -238.87,125.69z"/>
  <path class="fil10" d="M5725.05 8860.82c29.24,12.17 24.13,30.62 25.43,58.28l42.51 0 0 -100.54c0,0 -71.61,22.75 -176.46,-37.01 0,0 61.04,59.48 108.52,79.27z"/>
  <path class="fil9" d="M5785.52 8219.68c0,0 -153.15,-60.99 -171.03,-15.24 -11.71,29.95 18.06,55.74 58.95,81.81l-36.06 5.93c-8,1.3 -10.9,11.53 -4.58,16.65 10.05,8.11 37.82,13.58 95.71,15.59l57.01 -104.74z"/>
  <path class="fil6" d="M5091.99 10355.43l-51.96 -113.52 -165.49 -361.63 274.56 -307.55 -49.31 674.9 -7.8 107.8zm1787 -1752.21c-292,-216.39 -1089.52,-389.39 -1089.52,-389.39l-65.69 119.76c0,0 724.01,280.57 676.2,322.37 -28.08,24.66 -381.88,186.8 -501.65,241.34 -25.71,11.68 -53.79,17.39 -82.33,16.9l-366.58 -2.08c0,0 -264.44,-31.47 -472.51,207.57 -186.02,214.03 -502.18,709.68 -502.18,709.68l532.56 783.24 58.98 86.5 0.5 -1.02 -0.5 7.27c0,0 18.95,2.08 52.46,5.18 171.2,15.88 719.84,59.23 1010.28,-2.33l8.05 -1.83 -13.76 -1284.85c463.69,-367.07 685.02,-650.49 764.26,-739.57 20.81,-23.63 16.9,-59.76 -8.57,-78.74z"/>
  <polygon class="fil11" points="5040.03,10241.91 5091.99,10355.43 5066.77,10698.09 5066.27,10699.11 5007.29,10612.61 "/>
  <path class="fil12" d="M6110.95 10711.85l0 0c0.18,-0.04 0.36,-0.07 0.53,-0.11 -0.17,0.04 -0.35,0.07 -0.53,0.11zm0.57 -0.11c5.92,-1.13 11.78,-2.33 17.49,-3.53l8.05 -1.83 -8.05 1.83c-5.75,1.24 -11.57,2.4 -17.49,3.53z"/>
  <path class="fil13" d="M6109.05 10712.2c0.24,-0.04 0.46,-0.07 0.7,-0.14 -0.24,0.07 -0.46,0.1 -0.7,0.14zm1.23 -0.21c0.25,-0.07 0.46,-0.11 0.67,-0.14l0 0c-0.21,0.03 -0.42,0.07 -0.67,0.14z"/>
  <path class="fil14" d="M5924.79 10733.86c-14.64,-185.63 5.22,-473.53 25.61,-806.24 12.17,-198.68 -0.28,-516.47 49.04,-552.27 513.01,-372.54 879.55,-772.13 879.55,-772.13 14.42,10.76 21.94,26.99 21.94,43.36 0.03,12.52 -4.34,25.12 -13.37,35.38 -7.52,8.43 -16.34,18.66 -26.5,30.55 -52.74,61.53 -142.24,167.64 -280.49,305.12 -115.85,115.18 -265.92,252.45 -457.27,403.9l0 0 13.76 1284.85 -8.05 1.83c-5.71,1.2 -11.57,2.4 -17.49,3.53 0,0 0,0 -0.04,0 -0.17,0.04 -0.35,0.07 -0.53,0.11 -0.21,0.03 -0.42,0.07 -0.67,0.14 -0.17,0 -0.35,0.03 -0.53,0.07 -0.24,0.07 -0.46,0.1 -0.7,0.14 -54.65,10.3 -117.41,17.25 -184.26,21.66z"/>
  <path class="fil7" d="M6235.02 11905.72c-12.91,-94.69 -84.87,-804.44 -123.93,-1192.39l-186.3 20.53c0,0 271.78,2234.21 289.63,2965.27l86.22 0c0,0 -47.73,-1662.14 -65.62,-1793.41z"/>
  <path class="fil4" d="M5040.52 8496.9l-56.13 -100.72c28.12,-53.06 44.21,-113.53 44.21,-177.84 0,-210.04 -170.29,-380.33 -380.33,-380.33 -210.05,0 -380.33,170.29 -380.33,380.33 0,210.08 170.28,380.37 380.33,380.37 105.76,0 201.36,-43.22 270.29,-112.89l121.96 11.08z"/>
  <path class="fil5" d="M4450.43 8184.02l14.81 0 0 53.02c0,16.23 4.8,23.18 16.23,23.18 8.93,0 15.17,-4.45 23.39,-14.61l0 -61.59 14.64 0 0 86.75 -12.13 0 -1.27 -13.55 -0.53 0c-8.01,9.45 -16.58,15.7 -28.54,15.7 -18.42,0 -26.6,-11.82 -26.6,-33.94l0 -54.96z"/>
  <path class="fil5" d="M4602.48 8260.61c14.28,0 24.8,-13.02 24.8,-34.47 0,-19.09 -6.43,-31.96 -22.83,-31.96 -7.34,0 -14.67,4.12 -23.21,11.78l0 45.51c7.83,6.6 15.52,9.14 21.24,9.14zm-21.24 17.46l0 29.28 -14.68 0 0 -123.33 12.17 0 1.24 9.98 0.53 0c7.86,-6.6 17.49,-12.13 27.69,-12.13 22.3,0 34.25,17.32 34.25,44.27 0,29.46 -17.67,46.78 -37.46,46.78 -8.04,0 -16.05,-3.78 -24.13,-10.02l0.39 15.17z"/>
  <path class="fil5" d="M4681.14 8251.12c7.48,6.1 15.17,10.37 25.51,10.37 11.43,0 17.15,-6.07 17.15,-13.58 0,-8.93 -10.34,-12.85 -19.83,-16.41 -12.31,-4.44 -25.86,-10.37 -25.86,-25.01 0,-13.94 11.08,-24.62 29.81,-24.62 10.9,0 20.36,4.48 26.95,9.84l-6.95 9.24c-5.89,-4.44 -12.13,-7.65 -19.82,-7.65 -10.9,0 -15.88,5.89 -15.88,12.48 0,8.05 9.46,11.26 19.26,15 12.49,4.65 26.43,9.84 26.43,26.24 0,14.08 -11.26,25.9 -31.79,25.9 -12.31,0 -24.09,-5.19 -32.31,-12l7.33 -9.8z"/>
  <path class="fil5" d="M4783.77 8250.45c5.68,0 10.51,4.62 10.51,11.39 0,6.42 -4.83,11.08 -10.51,11.08 -5.89,0 -10.73,-4.66 -10.73,-11.08 0,-6.77 4.84,-11.39 10.73,-11.39z"/>
  <path class="fil5" d="M4846.03 8250.45c5.68,0 10.52,4.62 10.52,11.39 0,6.42 -4.84,11.08 -10.52,11.08 -5.89,0 -10.72,-4.66 -10.72,-11.08 0,-6.77 4.83,-11.39 10.72,-11.39z"/>
  <path class="fil2" d="M3582.28 13070.2c0,0 -79.89,-74.61 -26.29,-357.68 53.63,-283.07 189.66,-554.92 122.95,-861.98 -66.75,-307.13 -590.03,-1081.44 -591.79,-1132.94 -1.75,-51.47 -161.44,900.81 109.18,1275.96 270.6,375.11 303.15,505.28 291.15,702.56 -12.02,197.27 2.77,356.12 32.46,401.99l62.34 -27.91z"/>
  <path class="fil15" d="M3532.75 12500.85c-31.45,126.33 -50.45,442.92 -0.18,518.73 4.69,7.09 11.43,3.07 19.83,-10.06 -15.31,-52.31 -25.37,-144.07 3.59,-297 53.63,-283.07 189.66,-554.92 122.95,-861.98 -66.75,-307.13 -590.03,-1081.44 -591.79,-1132.94 0,0 78.85,645.16 344.42,1089.2 190.11,317.89 132.64,567.79 101.18,694.05z"/>
  <path class="fil2" d="M3677.7 13050.59c0,0 -153.72,-383.83 106.82,-716.18 260.53,-332.31 677.2,-759.03 685.49,-928.09 0,0 107.1,802.61 -232.02,1029.83 -339.13,227.16 -576.97,263.39 -518.16,612.95l-42.13 1.49z"/>
  <path class="fil15" d="M4043.71 12274.76c-378.11,275.23 -409.05,592.28 -350.34,739.31 4.55,11.47 13.19,18.45 24.59,22.16 -50.7,-337.4 185.2,-375.78 520.03,-600.08 339.12,-227.22 232.02,-1029.83 232.02,-1029.83 0,0 -48.16,593.24 -426.3,868.44z"/>
  <path class="fil2" d="M3424.86 13059.19c0,0 49.32,-203.23 23.08,-422.66 -26.22,-219.43 -255.44,-342.86 -469.59,-574.6 -110.19,-119.24 -142.78,-749.83 -74.47,-808.39 0,0 -378.11,458.18 -319.79,793.71 58.32,335.53 675.14,553.54 732.24,715.65 57.09,162.1 52.36,298.2 52.36,298.2l56.17 -1.91z"/>
  <path class="fil15" d="M2776.1 11433.88c-124.98,338.42 3.12,748.27 418.26,1002.84 305.6,187.46 208.29,577.14 208.29,577.14l49.92 -153.74c4.43,-66.5 4.91,-143.9 -4.63,-223.59 -26.22,-219.43 -255.44,-342.86 -469.59,-574.6 -106.27,-115.01 -140.34,-705.49 -81.35,-799.86 -17.32,21.81 -66.24,85.2 -120.9,171.81z"/>
  <path class="fil15" d="M2897 11262.07c4.3,-5.39 6.88,-8.53 6.88,-8.53 -2.43,2.08 -4.7,5.08 -6.88,8.53z"/>
  <path class="fil2" d="M3756.83 13033.79c0,0 88.58,-328.78 307.8,-373.06 219.18,-44.27 470.85,-368.16 484.47,-431.69 0,0 -36.97,610.83 -792.27,804.75z"/>
  <path class="fil15" d="M4052.11 12769.42c-134.31,67.14 -190.15,157.48 -209.98,239.47 672.47,-216.25 706.97,-779.85 706.97,-779.85 -2.68,12.59 -14.99,35.52 -34.18,64.27 -65.94,115.54 -225.61,357.47 -462.81,476.11z"/>
  <path class="fil6" d="M4231.11 12912.72l-1146.33 0 136.12 856.19c10.33,64.95 66.32,112.75 132.08,112.75l609.91 0c65.76,0 121.78,-47.8 132.08,-112.75l136.14 -856.19z"/>
  <polygon class="fil16" points="4208.6,13054.36 4231.11,12912.72 3084.78,12912.72 3107.28,13054.36 "/>
  <path class="fil16" d="M3953.4 12912.72l-136.14 856.19c-10.33,64.95 -66.32,112.75 -132.08,112.75l277.71 0c65.76,0 121.78,-47.8 132.08,-112.75l136.14 -856.19 -277.71 0z"/>
  <polygon class="fil6" points="6956.84,12439.19 12137.84,12439.19 12137.84,11385.79 6956.84,11385.79 "/>
  <path class="fil14" d="M6956.84 11641.49l323.64 0 126.86 -255.7 -450.5 0 0 255.7zm796.54 0l592.49 0 126.82 -255.7 -592.49 0 -126.82 255.7zm1065.35 0l592.49 0 126.83 -255.7 -592.49 0 -126.83 255.7zm1065.36 0l592.49 0 126.82 -255.7 -592.49 0 -126.82 255.7zm1065.21 0l592.67 0 126.86 -255.7 -592.78 0 -126.75 255.7zm1065.28 0l123.26 0 0 -248.57 -123.26 248.57zm123.26 -248.57l0 -7.13 -469.01 0 469.01 7.13zm-1061.79 -7.13l-472.65 0zm-592.49 0l-472.86 0zm-592.49 0l-472.87 0zm-592.49 0l-472.86 0z"/>
  <polygon class="fil17" points="7407.34,11385.79 7880.2,11385.79 7753.45,11641.59 7280.34,11641.59 "/>
  <polygon class="fil17" points="8472.69,11385.79 8945.56,11385.79 8818.8,11641.59 8345.94,11641.59 "/>
  <polygon class="fil17" points="9538.05,11385.79 10010.91,11385.79 9884.19,11641.59 9411.29,11641.59 "/>
  <polygon class="fil17" points="10603.4,11385.79 11076.05,11385.79 10949.3,11641.59 10476.68,11641.59 "/>
  <polygon class="fil17" points="12137.84,11385.79 12137.84,11392.92 12014.41,11641.59 11542.07,11641.59 11668.83,11385.79 "/>
  <polygon class="fil2" points="7601.79,13879.61 7967.03,13879.61 7967.03,12439.3 7601.79,12439.3 "/>
  <polygon class="fil15" points="7884.05,13879.61 7967.02,13879.61 7967.02,12439.3 7884.05,12439.3 "/>
  <polygon class="fil2" points="11156.06,13879.61 11521.28,13879.61 11521.28,12439.3 11156.06,12439.3 "/>
  <polygon class="fil15" points="11413.31,13879.61 11521.29,13879.61 11521.29,12439.3 11413.31,12439.3 "/>
  <polygon class="fil15" points="7601.79,12619.56 7967.03,12619.56 7967.03,12438.17 7601.79,12438.17 "/>
  <polygon class="fil15" points="11156.06,12619.56 11521.28,12619.56 11521.28,12438.17 11156.06,12438.17 "/>
  <polygon class="fil2" points="7601.79,11384.77 7967.03,11384.77 7967.03,11221.22 7601.79,11221.22 "/>
  <polygon class="fil15" points="7884.05,11384.77 7967.02,11384.77 7967.02,11221.22 7884.05,11221.22 "/>
  <polygon class="fil2" points="11156.06,11384.77 11521.28,11384.77 11521.28,11221.22 11156.06,11221.22 "/>
  <polygon class="fil15" points="11413.31,11384.77 11521.29,11384.77 11521.29,11221.22 11413.31,11221.22 "/>
  <polygon class="fil15" points="7601.79,11384.91 7967.03,11384.91 7967.03,11364.31 7601.79,11364.31 "/>
  <polygon class="fil15" points="11156.06,11384.91 11521.28,11384.91 11521.28,11364.31 11156.06,11364.31 "/>
  <polygon class="fil4" points="7880.2,11385.79 7357.7,12439.19 6956.84,12439.19 6956.84,12293.88 7407.34,11385.79 "/>
  <polygon class="fil4" points="8472.69,11385.79 7950.2,12439.19 8423.06,12439.19 8945.56,11385.79 "/>
  <polygon class="fil4" points="10010.91,11385.79 9488.45,12439.19 9015.58,12439.19 9538.05,11385.79 "/>
  <polygon class="fil4" points="11076.05,11385.79 10553.8,12439.19 10080.94,12439.19 10603.4,11385.79 "/>
  <polygon class="fil4" points="11668.83,11385.79 11146.29,12439.19 11618.91,12439.19 12137.84,11392.92 "/>
  <polygon class="fil7" points="7880.2,11385.79 7753.45,11641.59 7280.34,11641.59 7407.34,11385.79 "/>
  <polygon class="fil7" points="8945.56,11385.79 8818.8,11641.59 8345.94,11641.59 8472.69,11385.79 "/>
  <polygon class="fil7" points="10010.91,11385.79 9884.19,11641.59 9411.29,11641.59 9538.05,11385.79 "/>
  <polygon class="fil7" points="11076.05,11385.79 10949.3,11641.59 10476.68,11641.59 10603.4,11385.79 "/>
  <polygon class="fil7" points="12137.84,11392.92 12014.41,11641.59 11542.07,11641.59 11668.83,11385.79 "/>
  <g style="clip-path:url(#id0)">
   <image x="7076.36" y="11817.7" width="4999.57" height="579.26" xlink:href="not-found_Images\not-found_ImgID1.png"/>
  </g>
  <g style="clip-path:url(#id1)">
   <image x="7076.36" y="11817.7" width="614.54" height="579.26" xlink:href="not-found_Images\not-found_ImgID2.png"/>
  </g>
  <g style="clip-path:url(#id2)">
   <image x="7958.31" y="11817.7" width="780.34" height="579.26" xlink:href="not-found_Images\not-found_ImgID3.png"/>
  </g>
  <g style="clip-path:url(#id3)">
   <image x="9023.7" y="11817.7" width="783.87" height="579.26" xlink:href="not-found_Images\not-found_ImgID4.png"/>
  </g>
  <g style="clip-path:url(#id4)">
   <image x="10089.09" y="11817.7" width="783.87" height="579.26" xlink:href="not-found_Images\not-found_ImgID5.png"/>
  </g>
  <g style="clip-path:url(#id5)">
   <image x="11158" y="11817.7" width="783.87" height="579.26" xlink:href="not-found_Images\not-found_ImgID6.png"/>
  </g>
  <path class="fil6" d="M8100.51 10992.62c0,-179.84 -145.8,-325.65 -325.65,-325.65 -179.84,0 -325.61,145.81 -325.61,325.65 0,179.85 145.77,325.65 325.61,325.65 179.85,0 325.65,-145.8 325.65,-325.65z"/>
  <path class="fil4" d="M7922.47 10992.62c0,-81.49 -66.08,-147.56 -147.61,-147.56 -81.49,0 -147.56,66.07 -147.56,147.56 0,81.49 66.07,147.57 147.56,147.57 81.53,0 147.61,-66.08 147.61,-147.57z"/>
  <path class="fil6" d="M11662.16 10992.62c0,-179.84 -145.77,-325.65 -325.62,-325.65 -179.84,0 -325.64,145.81 -325.64,325.65 0,179.85 145.8,325.65 325.64,325.65 179.85,0 325.62,-145.8 325.62,-325.65z"/>
  <path class="fil4" d="M11484.11 10992.62c0,-81.49 -66.07,-147.56 -147.57,-147.56 -81.52,0 -147.56,66.07 -147.56,147.56 0,81.49 66.04,147.57 147.56,147.57 81.5,0 147.57,-66.08 147.57,-147.57z"/>
  <path class="fil6" d="M14100.7 13768l-1650.05 0 252.38 -611.79 0 -0.39 101.53 -246.84 27.97 -67.7 45.58 -110.13 9.28 -22.44 101.53 -246.87 18.66 -44.88 179.88 -436.77c32.46,-78.74 143.97,-78.74 176.43,0l179.88 436.77 18.66 44.88 101.5 246.87 9.34 22.44 45.58 110.13 27.94 67.7 101.53 246.84 0 0.39 252.38 611.79z"/>
  <path class="fil12" d="M14036.25 13611.15l-0.25 0 -43.53 -105.48 0.28 0 43.5 105.48zm-1520.9 0l0 0 43.46 -105.48 0.04 0 -43.5 105.48z"/>
  <polygon class="fil14" points="14036,13611.15 12515.35,13611.15 12558.85,13505.67 13758.93,13505.67 13802.39,13611.04 14035.79,13611.04 13992.36,13505.67 13992.47,13505.67 "/>
  <polygon class="fil2" points="12318.78,13878.31 14208.68,13878.31 14208.68,13611.15 12318.78,13611.15 "/>
  <polygon class="fil15" points="13800.34,13878.31 14208.68,13878.31 14208.68,13611.15 13800.34,13611.15 "/>
  <path class="fil14" d="M13992.36 13505.67l-233.43 0 -144.01 -349.32 0 -0.35 -101.53 -246.88 -27.94 -67.66 -45.57 -110.14 -9.35 -22.47 -101.5 -246.87 -18.66 -44.91 -151.2 -367.67 28.29 -69.07c16.23,-39.37 52.25,-59.06 88.23,-59.06 35.99,0 71.97,19.69 88.2,59.06l179.88 436.74 18.66 44.91 101.5 246.87 9.34 22.47 45.58 110.14 27.94 67.66 101.53 246.88 0 0.35 144.04 349.32z"/>
  <polygon class="fil18" points="14035.79,13611.04 13802.39,13611.04 13758.93,13505.67 13992.36,13505.67 "/>
  <polygon class="fil4" points="13663.93,12708.71 12887.43,12708.71 12988.92,12461.84 13562.43,12461.84 "/>
  <polygon class="fil4" points="13848.32,13155.82 13848.32,13156.21 12703.03,13156.21 12703.03,13155.82 12804.56,12908.98 13746.79,12908.98 "/>
  <polygon class="fil7" points="13663.93,12708.71 13430.53,12708.71 13329.03,12461.84 13562.43,12461.84 "/>
  <polygon class="fil7" points="13848.32,13155.82 13848.32,13156.21 13614.92,13156.21 13614.92,13155.82 13513.39,12908.98 13746.79,12908.98 "/>
  <path class="fil3" d="M3582.74 7768.44c123.29,0 230.47,-89.53 247.12,-211.66 2.96,-21.91 4.51,-44.28 4.51,-66.99 0,-272 -220.45,-492.45 -492.41,-492.45 -11.16,0 -22.2,0.5 -33.17,1.24 -22.48,-268.18 -247.14,-478.86 -521.13,-478.86 -288.92,0 -523.12,234.21 -523.12,523.1 0,12.8 0.62,25.47 1.54,38.06 -82.02,-45.79 -177.55,-70.27 -279.17,-65.62 -262.77,12.03 -478.67,222.22 -497.27,484.58l-0.4 6.24c-8.46,142.7 106.89,262.36 249.84,262.36l1843.66 0z"/>
  <path class="fil3" d="M15334.96 8155.23c389.4,0 410.99,-586.03 22.02,-604.94 -10.59,-0.5 -21.28,-0.78 -32.07,-0.78 -69.43,0 -136.24,11.01 -198.97,31.15 -52.07,-317.18 -327.34,-559.26 -659.27,-559.26 -339.23,0 -619.23,252.87 -662.27,580.36 -80.54,-38.6 -170.67,-60.22 -265.89,-60.22 -53.2,0 -104.81,6.74 -154.06,19.4 -340.5,87.7 -269.02,594.29 82.55,594.29l1867.96 0z"/>
  <path class="fil3" d="M10658.65 5267.78c389.29,0 410.81,-585.86 22.01,-604.77 -10.62,-0.49 -21.31,-0.77 -32.03,-0.77 -69.43,0 -136.25,11 -198.97,31.15 -52.03,-317.12 -327.2,-559.12 -659.06,-559.12 -339.12,0 -619.05,252.8 -662.09,580.18 -80.47,-38.56 -170.61,-60.19 -265.78,-60.19 -53.2,0 -104.81,6.74 -154.03,19.41 -340.39,87.66 -268.92,594.11 82.55,594.11l1867.4 0z"/>
  <path class="fil6" d="M5394 5417.36c0,-515.45 -417.83,-933.28 -933.27,-933.28 -515.44,0 -933.27,417.83 -933.27,933.28 0,515.41 417.83,933.27 933.27,933.27 515.44,0 933.27,-417.86 933.27,-933.27z"/>
  <path class="fil16" d="M4468.42 4484.26c253.79,166.79 421.5,453.92 421.5,780.34 0,515.41 -417.83,933.28 -933.28,933.28l-7.65 -0.21c146.97,96.59 322.72,152.96 511.74,152.96 515.44,0 933.27,-417.86 933.27,-933.27 0,-512.87 -413.74,-928.94 -925.58,-933.1z"/>
 </g>
</svg>
